<svg width="194" height="243" viewBox="0 0 194 243" fill="none" xmlns="http://www.w3.org/2000/svg">
<path d="M2.01894 77.4833C2.12594 78.0251 2.6519 78.3776 3.19373 78.2706L12.0232 76.5271C12.5651 76.4201 12.9176 75.8941 12.8106 75.3523C12.7036 74.8105 12.1776 74.458 11.6358 74.5649L3.78733 76.1147L2.23753 68.2663C2.13054 67.7245 1.60457 67.372 1.06275 67.479C0.520926 67.586 0.168427 68.1119 0.275418 68.6537L2.01894 77.4833ZM85.5 5.4224L85.2572 4.45232L85.5 5.4224ZM219.877 181.759L219.461 180.849L219.877 181.759ZM154.814 5.4224L155.096 6.3819L154.814 5.4224ZM234.931 238.203L234.701 237.23L234.931 238.203ZM113.937 170.89C113.44 170.649 112.842 170.856 112.601 171.352L108.666 179.447C108.425 179.943 108.632 180.542 109.128 180.783C109.625 181.025 110.223 180.818 110.465 180.321L113.962 173.126L121.157 176.624C121.654 176.865 122.252 176.658 122.494 176.161C122.735 175.665 122.528 175.066 122.032 174.825L113.937 170.89ZM3.8307 77.8463C10.5227 67.8611 22.3751 52.1357 36.8951 37.827C51.4368 23.4968 68.5453 10.6968 85.7428 6.39248L85.2572 4.45232C67.5319 8.88874 50.1094 21.997 35.4913 36.4025C20.8514 50.8294 8.9152 66.6672 2.1693 76.7328L3.8307 77.8463ZM85.7428 6.39248C152.369 -10.2834 201.413 26.2064 225.985 70.5991C238.274 92.8017 244.394 116.911 243.531 137.213C242.666 157.529 234.838 173.825 219.461 180.849L220.292 182.668C236.622 175.208 244.648 158.015 245.529 137.298C246.411 116.566 240.169 92.095 227.735 69.6305C202.859 24.6891 153.007 -12.5047 85.2572 4.45232L85.7428 6.39248ZM219.461 180.849C198.141 190.589 177.883 186.309 160.803 173.908C143.685 161.48 129.788 140.903 121.411 118.193C113.034 95.4841 110.224 70.7687 115.139 50.1188C120.045 29.5121 132.624 12.9799 155.096 6.3819L154.532 4.46291C131.251 11.2987 118.234 28.4832 113.194 49.6557C108.164 70.7849 111.06 95.9111 119.535 118.885C128.009 141.86 142.109 162.807 159.628 175.526C177.184 188.272 198.203 192.76 220.292 182.668L219.461 180.849ZM155.096 6.3819C188.941 -3.55568 217.959 4.18334 240.707 21.799C263.488 39.4406 280.014 67.0215 288.696 96.7632C297.378 126.506 298.183 158.298 289.65 184.311C281.128 210.291 263.315 230.472 234.701 237.23L235.161 239.176C264.581 232.228 282.856 211.441 291.551 184.934C300.235 158.46 299.385 126.245 290.616 96.2028C281.845 66.1593 265.122 38.1767 241.931 20.2177C218.707 2.23269 189.029 -5.666 154.532 4.46291L155.096 6.3819ZM234.701 237.23C189.585 247.885 159.572 231.445 140.792 212.357C131.386 202.797 124.794 192.563 120.552 184.715C118.432 180.792 116.902 177.47 115.904 175.132C115.404 173.963 115.038 173.041 114.797 172.414C114.677 172.1 114.588 171.86 114.53 171.699C114.5 171.619 114.479 171.559 114.465 171.519C114.458 171.499 114.453 171.484 114.449 171.475C114.448 171.47 114.447 171.467 114.446 171.465C114.445 171.464 114.445 171.463 114.445 171.463C114.445 171.463 114.445 171.463 113.5 171.79C112.555 172.116 112.555 172.117 112.556 172.118C112.556 172.119 112.556 172.121 112.557 172.122C112.558 172.126 112.56 172.13 112.562 172.136C112.566 172.148 112.572 172.165 112.58 172.188C112.596 172.232 112.619 172.298 112.65 172.383C112.712 172.554 112.805 172.805 112.93 173.13C113.179 173.779 113.555 174.725 114.065 175.918C115.084 178.304 116.64 181.682 118.793 185.665C123.096 193.629 129.793 204.029 139.366 213.76C158.545 233.253 189.247 250.02 235.161 239.176L234.701 237.23Z" fill="url(#paint0_linear_124_506)" fill-opacity="0.2"/>
<defs>
<linearGradient id="paint0_linear_124_506" x1="24" y1="29.5" x2="207.5" y2="41.5" gradientUnits="userSpaceOnUse">
<stop stop-color="#2C2C2C"/>
<stop offset="1" stop-color="#2C2C2C" stop-opacity="0"/>
</linearGradient>
</defs>
</svg>
