<svg width="18" height="18" viewBox="0 0 18 18" fill="none" xmlns="http://www.w3.org/2000/svg">
<path d="M12.2811 15.5626C13.1506 15.56 13.9838 15.2135 14.5986 14.5986C15.2135 13.9838 15.56 13.1506 15.5626 12.2811V5.71887C15.56 4.84936 15.2135 4.01621 14.5986 3.40138C13.9838 2.78654 13.1506 2.43998 12.2811 2.43738H5.71887C4.84936 2.43998 4.01621 2.78654 3.40138 3.40138C2.78654 4.01621 2.43998 4.84936 2.43738 5.71887V12.2811C2.43998 13.1506 2.78654 13.9838 3.40138 14.5986C4.01621 15.2135 4.84936 15.56 5.71887 15.5626H12.2811ZM12.2811 16.875H5.71887C3.19219 16.875 1.125 14.8078 1.125 12.2811V5.71887C1.125 3.19219 3.19219 1.125 5.71887 1.125H12.2811C14.8078 1.125 16.875 3.19219 16.875 5.71887V12.2811C16.875 14.8078 14.8078 16.875 12.2811 16.875Z" fill="white"/>
<path d="M13.2656 12.2811C13.0709 12.2811 12.8806 12.3389 12.7187 12.447C12.5569 12.5552 12.4307 12.7089 12.3562 12.8888C12.2817 13.0687 12.2622 13.2666 12.3002 13.4575C12.3381 13.6485 12.4319 13.8239 12.5696 13.9616C12.7072 14.0992 12.8826 14.193 13.0736 14.231C13.2645 14.2689 13.4625 14.2495 13.6423 14.1749C13.8222 14.1004 13.9759 13.9743 14.0841 13.8124C14.1923 13.6505 14.25 13.4602 14.25 13.2655C14.2503 13.1362 14.225 13.008 14.1756 12.8885C14.1263 12.7689 14.0538 12.6603 13.9623 12.5688C13.8708 12.4774 13.7622 12.4049 13.6427 12.3555C13.5231 12.3061 13.395 12.2808 13.2656 12.2811Z" fill="white"/>
<path d="M9 11.6251C9.5192 11.6251 10.0267 11.4712 10.4584 11.1827C10.8901 10.8943 11.2266 10.4843 11.4253 10.0046C11.624 9.52491 11.676 8.99709 11.5747 8.48787C11.4734 7.97864 11.2234 7.51089 10.8562 7.14376C10.4891 6.77663 10.0214 6.52661 9.51214 6.42532C9.00291 6.32403 8.47509 6.37602 7.99541 6.57471C7.51574 6.7734 7.10575 7.10986 6.8173 7.54156C6.52885 7.97326 6.37488 8.4808 6.37488 9C6.37563 9.696 6.65244 10.3633 7.14459 10.8554C7.63673 11.3476 8.30401 11.6244 9 11.6251ZM9 12.9375C8.22124 12.9375 7.45996 12.7066 6.81244 12.2739C6.16493 11.8413 5.66025 11.2263 5.36223 10.5068C5.06421 9.78733 4.98623 8.99563 5.13816 8.23183C5.29009 7.46803 5.6651 6.76644 6.21577 6.21577C6.76644 5.6651 7.46803 5.29009 8.23183 5.13816C8.99563 4.98623 9.78733 5.0642 10.5068 5.36222C11.2263 5.66024 11.8413 6.16492 12.2739 6.81244C12.7066 7.45996 12.9375 8.22124 12.9375 9C12.9375 10.0443 12.5227 11.0458 11.7842 11.7842C11.0458 12.5227 10.0443 12.9375 9 12.9375Z" fill="white"/>
</svg>
