<svg width="16" height="16" viewBox="0 0 16 16" fill="none" xmlns="http://www.w3.org/2000/svg">
<g clip-path="url(#clip0_204_550)">
<path d="M14.6668 2.67334C14.0002 3.00001 13.3468 3.13268 12.6668 3.33334C11.9195 2.49001 10.8115 2.44334 9.74683 2.84201C8.68216 3.24068 7.98483 4.21534 8.00016 5.33334V6.00001C5.83683 6.05534 3.91016 5.07001 2.66683 3.33334C2.66683 3.33334 -0.121171 8.28867 5.3335 10.6667C4.0855 11.498 2.84083 12.0587 1.3335 12C3.53883 13.202 5.94216 13.6153 8.02283 13.0113C10.4095 12.318 12.3708 10.5293 13.1235 7.85001C13.348 7.03512 13.4595 6.19325 13.4548 5.34801C13.4535 5.18201 14.4615 3.50001 14.6668 2.67268V2.67334Z" stroke="white" stroke-width="0.904762" stroke-linecap="round" stroke-linejoin="round"/>
</g>
<defs>
<clipPath id="clip0_204_550">
<rect width="16" height="16" fill="white"/>
</clipPath>
</defs>
</svg>
